<?xml version="1.0" encoding="utf-8"?>
<!-- Generator: Adobe Illustrator 16.0.0, SVG Export Plug-In . SVG Version: 6.00 Build 0)  -->
<!DOCTYPE svg PUBLIC "-//W3C//DTD SVG 1.1//EN" "http://www.w3.org/Graphics/SVG/1.1/DTD/svg11.dtd">
<svg version="1.1" id="Layer_1" xmlns="http://www.w3.org/2000/svg" xmlns:xlink="http://www.w3.org/1999/xlink" x="0px" y="0px"
	 width="55.006px" height="47px" viewBox="0 0 55.006 47" enable-background="new 0 0 55.006 47" xml:space="preserve">
<path fill="#2E87C8" d="M44.635,10.315c3.701,6.109,2.936,15.407-1.532,20.914c-4.94,6.528-13.092,9.352-21.133,7.129
	c-7.311-1.915-13.273-8.896-13.947-16.445C7.111,13.907,10.83,6.615,17.594,2.621c5.215-3.208,13.255-3.573,18.69-0.528
	C39.583,3.698,42.899,6.98,44.635,10.315z M27.878,0.908c0.072,0.729,0.072,1.75,0,2.588c0.018-0.127,0.145-0.127,0.218-0.183
	c0.257,0.092,0.257,0.401,0.184,0.619h-0.055c1.312-0.088,2.569,0.237,3.773,0.602c1.258,0.166,2.352,1.68,3.593,0.876
	c0.346,0.383,0.947,0.018,1.13,0.619c0.476,0.09,0.729,0.565,1.058,0.875c-0.036,0.439,0.364,0.638,0.511,0.967V7.816
	c0.417-0.745,1.076-1.404,1.805-1.786c-2.606-2.479-5.798-4.084-9.28-4.723C29.865,1.108,28.808,1.161,27.878,0.908z M14.659,6.067
	l2.15,2.06c2.699-2.625,6.164-4.12,9.976-4.246c-0.145-0.913-0.093-1.952-0.037-2.882C22.116,1.253,18.086,3.004,14.659,6.067z
	 M41.571,1.6l1.403,1.404c1.421,2.188,3.41,4.357,5.378,5.744c-0.419-0.875-0.508-1.897-0.948-2.771
	C46.531,3.532,43.812,2.347,41.571,1.6z M12.999,1.874c-1.732,0.693-3.608,1.257-4.904,2.879C7.092,6.067,6.783,7.634,6.271,9.13
	l1.531-1.313C10.137,6.195,10.739,3.551,12.999,1.874z M30.121,2.476l-1.313,0.583c-0.147,0.073-0.603-0.165-0.528,0.219
	c0.255,0.164,0.509,0.345,0.82,0.384c0.82-0.365,1.804,0.235,2.499-0.53C31.396,2.585,30.667,2.567,30.121,2.476z M46.877,4.154
	c1.935,1.275,1.805,3.627,2.497,5.542c0.183,0.802,0.675,1.531,0.73,2.334c-1.039-3.008-4.541-3.337-5.815-6.181l0.399,1.658
	c0.983,3.227,4.832,4.012,6.292,6.929c-0.456-2.116,0.344-4.321-0.295-6.401C50.16,6.25,48.682,4.682,46.877,4.154z M4.559,7.033
	c-1.479,2.171-0.274,5.18-0.694,7.75c0.53-1.059,1.55-2.06,2.443-2.807c2.061-1.333,3.904-3.446,3.976-5.816
	c-1.094,2.807-4.705,3.172-5.598,6.162H4.595c1.332-2.479,0.583-5.98,3.117-7.822C6.382,4.882,5.25,5.866,4.559,7.033z
	 M27.842,4.882c0.145,0.912,0.09,2.006,0.036,2.898c2.314,0.036,4.503,0.749,6.309,2.097c-0.163-0.092-0.384-0.456-0.347-0.693
	h0.074c0.035-0.328-0.456-0.473-0.294-0.802c0.439,0.037,0.767,0.639,1.003,0.967c1.259-0.018,0.53,1.477,1.479,1.933
	c0.218,0.11-0.075,0.566,0.273,0.529c0.291,0.236,0.655,0.492,0.601,0.875c0.109,0.657,0.64-0.2,0.931,0.218
	c0.256,0.202-0.184,0.329-0.128,0.566c0.164,0.074,0.311-0.163,0.437,0.036c0.055,0.219-0.106,0.31-0.22,0.438
	c-0.108,0.382,0.346,0.164,0.476,0.347c0.201,0.436,0.366,1.094,0.037,1.586c0.454,0.491-0.072,1.002-0.167,1.477
	c-0.324,0.31-0.379,1.04-0.998,0.874c-0.146,0.256,0.09,0.548-0.056,0.749l1.095,0.055c-0.622-0.875,0.182-1.715,0.438-2.498
	c0.126-0.055,0.29-0.329,0.398-0.055c-0.055,0.365-0.09,0.766-0.127,1.058c0.274,0.42,0.163,1.002,0.256,1.495l2.807-0.055
	c-0.199-1.86-0.582-3.646-1.367-5.252c-0.201,0.075-0.438,0.22-0.656,0.091c-0.311-0.417-0.563-0.928-1.002-1.275
	c-0.365,0-0.62-0.291-0.913-0.474c-0.638,0.017-0.4-0.911-1.019-0.784c-0.33-0.163-0.568-0.329-0.658-0.71
	c-0.018-0.439-0.055-0.987-0.473-1.314c-0.238-0.127-0.457,0.038-0.621,0.184C35.1,9.66,34.953,9.276,34.971,9.002
	c-0.383-0.291,0.017-0.62-0.183-0.967c-0.547-0.437-0.291-1.257-1.038-1.623c-1.205-0.583-2.481-0.947-3.812-1.22
	C29.245,5.082,28.499,5.065,27.842,4.882z M36.192,4.882c-0.146,0.036-0.091,0.273-0.037,0.365c0.473,0.036,0.473,0.838,1.041,0.511
	l-0.13-0.565C36.923,4.828,36.431,5.009,36.192,4.882z M17.43,8.875c0.73,0.512,1.44,1.313,2.042,1.97
	c1.934-1.878,4.522-3.028,7.312-3.064c-0.054-0.912-0.054-1.896,0-2.807C23.247,5.247,20.074,6.523,17.43,8.875z M40.786,6.687
	l-1.914,2.061l-0.309,0.036c0.256,0,0.183,0.292,0.346,0.4c0.8,0.566,1.165,1.367,1.842,1.97c0.255,0.619,0.911,1.019,0.911,1.787
	c0.948,1.841,1.385,4.009,1.495,6.125c0.948-0.11,2.024-0.146,2.935-0.127l-0.09-0.091C45.819,14.108,43.886,10.06,40.786,6.687z
	 M14.094,6.997l-0.092-0.273c-3.117,3.393-4.868,7.677-5.105,12.344l2.972,0.037c-0.11-0.948,0.146-1.86,0.255-2.788
	c0.638-2.754,1.826-5.363,3.939-7.404L14.094,6.997z M51.07,7.69c1.35,1.97,0.584,4.741,0.491,7.036
	c0.056,1.114,0.238,2.225,0.165,3.338c-0.165-0.438-0.199-0.912-0.312-1.368c-0.547-2.498-3.481-3.719-4.666-5.816
	c0.183,0.71,0.309,1.422,0.563,2.097c1.023,2.954,4.087,4.94,4.505,8.15c0.272-3.064,2.425-5.507,1.624-8.844
	C53.021,10.607,52.328,8.966,51.07,7.69z M3.5,8.09c-1.058,1.259-1.769,2.772-2.133,4.376c-0.713,3.354,1.312,5.945,1.75,9.007
	c0.585-3.847,4.632-6.271,4.851-10.284c-1.185,2.17-4.067,3.429-4.595,5.999c0,0.42-0.127,0.821-0.221,1.223l-0.088-0.091
	l0.144-1.66C3.702,13.688,1.97,10.627,3.5,8.09z M26.838,8.748L26.748,8.82c-2.517,0.146-4.612,1.257-6.565,2.771
	c0.749,0.492,1.351,1.259,2.061,1.915c1.221-1.167,2.846-1.859,4.541-1.915C26.73,10.754,26.691,9.641,26.838,8.748z M27.878,8.784
	c0.145,0.856,0.109,1.859,0.054,2.754c1.696,0.127,3.5,0.82,4.723,1.932c0.639-0.655,1.349-1.531,2.059-1.932
	C32.71,9.951,30.47,8.966,27.878,8.784z M16.682,9.477V9.66c-2.315,2.643-3.608,5.834-3.846,9.407
	c0.948,0.019,1.987-0.036,2.882,0.037l-0.094-0.127c0.185-2.826,1.185-5.396,3.119-7.438C17.977,10.917,17.265,10.207,16.682,9.477z
	 M35.318,12.193c-0.841,0.986-1.935,2.025-2.755,2.972c0.054,0.128,0.2,0.274,0.221,0.219c0.217-0.273,0.055-0.968,0.653-0.82
	c0.603,0.201,1.133,0.146,1.788,0.219c0.365,0.201,0.421,0.638,0.748,0.82c0.146,0.164-0.054,0.31-0.128,0.437
	c0.074,0.075,0.146,0.146,0.181,0.22c0.184-0.165,0.44-0.382,0.785-0.292c0.346,0.018,0.439,0.51,0.749,0.565
	c0.146,0.183-0.091,0.365-0.218,0.437c0.072,0.346-0.33,0.456-0.186,0.785c0.186,0.036,0.364-0.056,0.439-0.182
	c0.692-0.511,0.146-1.167,0.036-1.788c-0.274-0.564-0.857-0.674-1.313-1.095c0.018-0.181,0.127-0.381,0.274-0.472
	C36.574,13.415,35.754,12.867,35.318,12.193z M19.472,12.284c-0.619,0.766-1.222,1.605-1.658,2.499
	c-0.712,1.312-0.914,2.826-1.186,4.321l1.186-0.037c-0.202-0.237-0.166-0.565-0.166-0.875c0.273-0.583,0.384-1.623,1.257-1.568
	c0.419-0.091-0.017-0.419,0.312-0.584c0.619-0.09,0.784-0.674,1.313-0.948c0.492-0.053,0.602-0.746,1.094-0.801
	C20.785,13.707,20.221,12.978,19.472,12.284z M27.932,12.63l0.074,1.969l0.746,0.274c0.219-0.382,0.621-0.473,0.876-0.802
	c0.237-0.11,0.237,0.183,0.347,0.273c0.146,0.893-0.838,1.293-1.386,1.658h0.219c0.565-0.583,0.893,0.73,1.477,0.127
	c0.111-0.746,1.168-0.655,1.405-1.404c-0.184,0.183-0.274-0.016-0.438-0.071c0.055-0.254,0.402-0.42,0.565-0.583
	C30.631,13.342,29.335,12.85,27.932,12.63z M26.748,12.686c-1.532,0.218-2.974,0.784-4.066,1.969
	c0.365,0.071,0.728,0.219,1.001,0.475c0.091,0.182-0.163,0.201-0.181,0.31c0.236,0.346,0.255-0.074,0.492-0.128
	c0.219,0.219,0.42,0.383,0.729,0.219c0.164,0.273,0.42,0.017,0.62,0.037c0.072-0.219,0.384-0.401,0.256-0.658
	c0.107-0.198,0.163-0.527,0.436-0.527c-0.165,0.857,0.639,0,0.876,0.401C26.675,14.163,26.856,13.307,26.748,12.686z M54.133,14.783
	c0.511,2.953-1.275,5.18-2.004,7.75c-0.402,0.983-0.237,2.242-0.839,3.1c-0.037-0.492,0.237-0.967,0.271-1.495
	c0.457-3.302-2.405-5.252-3.063-8.042c-0.034,0.749,0.02,1.459,0.13,2.133c0.162,3.483,2.442,6.31,1.785,9.937
	c0.657-0.855,1.148-1.732,1.935-2.569C54.972,22.86,55.646,18.283,54.133,14.783z M0.711,15.166
	c-0.948,2.188-0.893,5.087-0.183,7.367c0.621,2.351,2.862,3.992,4.03,6.036c-0.202-0.858-0.165-1.935-0.036-2.81
	c0.766-3.045,1.967-5.981,1.785-9.353c-0.455,2.424-2.625,4.139-2.878,6.637c-0.166,1.02,0.088,2.024,0.218,2.935
	c-0.237-0.457-0.456-0.984-0.494-1.568C2.788,21.128,0.146,18.722,0.711,15.166z M26.691,16.315l0.056,0.036
	c0.055,0.273,0.256,0.694,0,0.876c-0.33,0.436-1.112,0.345-1.222,0.928c-0.856,0.256-0.528,1.313-0.802,1.969
	c-0.547,0.128-0.347-0.527-0.602-0.748l-0.128,0.166c-0.838-0.638-0.676,0.729-1.185,0.837c0.583,0.128,1.075-0.199,1.659-0.219
	c0.036,0.073,0.182,0.111,0.126,0.219h0.092c0.128-0.127,0.146-0.29,0.128-0.473c0.056-0.182,0.274-0.293,0.437-0.182
	c-0.055,0.182,0.072,0.328,0.219,0.399l-0.31,0.438c-0.164,0.183,0.036,0.674-0.381,0.658c-0.093,0.017-0.166-0.056-0.129-0.146
	h-0.092l0.221,0.4c0.253-0.017,0.199-0.473,0.527-0.527c0.293-0.073,0.328-0.421,0.293-0.694c0.381-0.329,0.856-0.128,1.274-0.182
	c0.11,0.11,0.365,0.146,0.312,0.345c0.162,0.329-0.111,0.693-0.312,0.966c0.091,0.183-0.127,0.329-0.127,0.53
	c-0.346,0.365-0.729,0.2-1.186,0.31c0.583,0.401,1.205,0.656,1.969,0.603c0.73,0.053,0.384-0.876,0.913-1.168
	c0.309-0.036,0.584,0.037,0.93-0.054c0.146-0.275,0.164-0.602,0.22-0.914c-0.31-0.144-0.201-0.456-0.22-0.711
	c-0.184-0.218-0.166-0.618-0.528-0.656c-0.072-0.201,0.146-0.292,0.126-0.474c0.548-0.201-0.289-0.528,0.057-0.839
	c-0.62-0.108-0.767-1.094-1.532-0.782c-0.183-0.257-0.657-0.367-0.657-0.75c0.054-0.273,0.674-0.163,0.602-0.127
	c-0.038-0.056-0.11-0.092-0.092-0.166C27.111,16.168,26.838,16.186,26.691,16.315z M18.906,18.667c-0.674,0.218,0,0.856-0.036,1.275
	c-0.072,0.347-0.419,0.073-0.62,0.219c0.091,0.566-0.383,0.674-0.784,0.786c-0.127,0.381,0.292,0.563,0.091,0.928
	c0.492,0.494,0.875,1.094,0.784,1.787c0.347,0.494,0.255,1.241,0.347,1.879c0.293,0.291,0.456,0.729,0.439,1.187
	c0.017,0.236-0.237,0.311-0.384,0.399c-0.183,0.219,0.127,0.111,0.127,0.292l2.444-2.535c-0.859-0.983-1.533-2.296-1.787-3.663
	l-0.31-0.183c-0.055,0.345-0.036,0.837-0.348,0.966c-0.163-0.146-0.492-0.22-0.492-0.53c0.091-0.201,0.257-0.072,0.401-0.092
	c-0.017-0.162,0.019-0.328,0.037-0.472c0.055-0.201-0.292-0.348-0.037-0.53c0.219-0.017,0.312,0.237,0.476,0.348l0.436-0.22
	c-0.127-0.418,0.111-1.076-0.036-1.531C19.599,18.611,19.198,18.686,18.906,18.667z M36.849,19.031h0.218H36.849z M36.538,19.942
	l0.492,0.565c-0.018,0.637,0.856,0.839,0.912,1.496c0.182-0.602,0.166-1.276,0.347-1.879C37.723,20.07,37.013,20.252,36.538,19.942z
	 M43.065,19.978l0.092,0.183c-0.165,3.848-1.751,7.366-4.212,9.973c0.693,0.621,1.479,1.423,2.115,2.097
	c2.426-2.79,4.083-5.925,4.667-9.48c0.201-0.912,0.146-1.896,0.4-2.772c-0.893,0.255-1.95,0.092-2.935,0.146L43.065,19.978z
	 M39.311,20.034c0.109,0.365-0.108,0.71-0.093,1.094c-0.381,0.638,0.491,0.801,0.257,1.404c-0.164,0.127-0.329,0.109-0.529,0.036
	c-0.457,1.787-1.349,3.428-2.626,4.85h-0.127c0.328,0.2,0.563,0.656,0.93,0.746v-0.253c0.074-0.056,0.109-0.183,0.221-0.129
	c0.708,0.221,0.766,1.203,0.819,1.658c1.86-1.949,3.006-4.265,3.593-6.781c0.199-0.838,0.09-1.86,0.437-2.589
	C41.243,20.125,40.204,20.18,39.311,20.034z M16.591,20.07c0.201,0.657,0.419,1.367,0.256,2.097c0-0.329,0.71-0.658,0.146-0.947
	c0.218-0.33,0.053-1.022,0.472-1.059C17.138,20.233,16.883,20.233,16.591,20.07z M8.935,20.161c0.199,4.65,1.912,8.716,4.94,12.163
	c0.675-0.712,1.422-1.514,2.151-2.097c-0.364-0.239-0.602-0.658-0.966-0.968c-0.456-0.092-0.766-0.526-0.876-0.912
	c0.019,0.056-0.055,0.093-0.09,0.128c-0.421,0.201-0.547-0.311-0.821-0.472c-0.254-0.129-0.055-0.711-0.492-0.492
	c-0.254-0.419-0.729-0.385-0.912-0.877l-0.182,0.311c-0.329-0.019-0.564-0.42-0.747-0.62c-0.676,0.2-0.402-0.729-0.784-1.039
	c-0.146-0.584,0.036-1.131,0.345-1.588c0.202-0.182,0.583-0.037,0.657,0.091c0.346,0.13,0.128-0.273,0.31-0.345
	c0.493-0.419,0.73,0.163,1.004,0.475c-0.401-1.168-0.658-2.537-0.603-3.794C10.939,20.252,9.882,20.216,8.935,20.161z M12.78,20.125
	l0.092,0.128c0.092,1.312,0.455,2.589,0.565,3.848c0.164-0.11,0.056-0.403,0.273-0.403c0.073-0.618,0.164-1.33,0.565-1.876
	c0.583-0.019,0.601-0.804,1.221-0.748c0.146,0.11,0.348,0.254,0.403,0.436c-0.31-0.365-0.329-0.947-0.182-1.385
	C14.804,20.252,13.711,20.252,12.78,20.125z M20.713,21.291l0.163,0.274c0.219,0.911,0.765,1.677,1.221,2.498l0.84-0.874
	c-0.02-0.11,0.036-0.238-0.036-0.312c-0.166-0.218-0.054-0.62-0.273-0.747c-0.074,0.199,0.164,0.309,0.055,0.473
	c-0.273-0.109-0.565-0.236-0.712-0.564c0.055-0.42-0.255-0.11-0.473-0.31C21.478,21.272,20.912,21.565,20.713,21.291z M23.774,22.04
	c-0.053,0.253-0.253,0.455-0.4,0.655c0.256-0.108,0.4-0.492,0.693-0.474L23.774,22.04z M48.938,22.386
	c-1.732,3.739-0.474,8.697-2.588,12.253l0.344-0.293c4.104-2.241,9.043-6.015,8.223-11.521c-0.072,0.746-0.309,1.419-0.654,2.058
	c-1.606,2.499-4.341,4.541-5.689,7.131c-0.035,0.091-0.165,0.144-0.22,0.055l0.275-0.347C50.56,28.932,48.828,25.504,48.938,22.386z
	 M31.56,22.695c-0.4,0.566,0.385,0.529,0.438,1.002c0.092,0,0.199,0.036,0.255-0.037c-0.056-0.198-0.035-0.418-0.218-0.563
	C31.725,23.097,31.725,22.695,31.56,22.695z M5.999,22.75c0.217,1.205-0.164,2.262-0.346,3.356c-0.622,2.095-0.31,4.557,0.911,6.271
	c-0.402-0.201-0.658-0.675-0.911-1.094c-1.514-2.9-5.325-4.541-5.653-8.023c-0.02,1.257-0.02,2.588,0.365,3.718
	c1.058,3.903,5.359,5.91,8.259,7.877C6.564,31.302,7.658,26.471,5.999,22.75z M36.411,22.914c-0.529-0.401-0.419,0.367-0.878,0.311
	c-0.16-0.036-0.198-0.236-0.215-0.4c-0.037,0.417-0.365,0.729-0.604,1.055c-0.837-0.235-0.618,0.951-1.458,0.693
	c0.108,0.328,0.475-0.055,0.658,0.056c0.146-0.074,0.109-0.22,0.182-0.31c0.091-0.349,0.511-0.475,0.841-0.349
	c0.18,0.293,0.234,0.659,0.217,1.003c-0.2,0.147-0.2,0.383-0.183,0.621c-0.257,0.42-0.146,1.312-0.911,1.223
	c-0.804-0.293-1.679-0.512-2.554-0.529v0.183c0.584,0.218,1.238,0.218,1.713,0.655c0.512-0.056,1.149,0.072,1.533-0.22
	c0.054-0.361,0.201-0.691,0.438-0.965c0.327,0.036,0.255,0.475,0.401,0.692c0.966-1.221,1.804-2.39,2.132-3.884
	C37.251,22.714,36.902,22.988,36.411,22.914z M24.687,22.877l-1.75,1.969c1.003,0.766,2.17,1.368,3.465,1.569
	c-0.02-0.349-0.02-0.694,0.163-0.968c0.183-0.11,0.457,0.056,0.622-0.125c-0.02-0.167-0.129-0.167-0.221-0.312
	c-0.109-0.256,0-0.493,0.038-0.657c0.072-0.128-0.147-0.42,0.091-0.51c-0.566,0.273-1.077-0.111-1.569-0.274
	C25.252,23.353,24.76,23.296,24.687,22.877z M30.34,24.847c0.217-0.292,0.691-0.238,0.783-0.565
	C30.723,24.209,30.284,24.501,30.34,24.847z M31.377,25.285c-0.199,0.109-0.364,0.109-0.474,0.347
	c-0.236,0.31-0.527-0.02-0.748-0.128c0.075,0.091,0.24,0.31,0.037,0.438c-0.235,0.255-0.455-0.11-0.691-0.183
	c-0.128,0.801-0.421-0.219-0.841-0.037c-0.182-0.455-0.49,0.092-0.782,0.037c-0.219,0.183-0.237,0.712-0.656,0.657
	c-0.092,0.255-0.438,0.163-0.474,0.346c0.201,0.237,0.474,0.128,0.693,0.091c0.345-0.308,0.784-0.109,1.186-0.164
	c-0.037,0.656,0.729,0.164,0.967,0.564c0.272-0.016,0.272-0.29,0.382-0.491c0.564-0.091,1.148-0.438,1.458-0.877
	C31.506,25.722,31.615,25.375,31.377,25.285z M22.06,25.595c-0.582,0.711-1.275,1.385-1.968,1.969h0.129
	c1.603,1.386,3.627,2.353,5.523,2.663c-0.692-0.093-0.964-0.766-1.275-1.277c-0.183-0.42,0.456-0.51,0.347-0.946
	c0.236-0.385,0.601-0.604,1.056-0.658c-0.218,0.037-0.437,0.073-0.655,0.128C24.067,27.092,22.9,26.579,22.06,25.595z
	 M47.186,27.911l-1.53,2.005c-2.062,2.845-1.822,6.729-4.686,9.154c1.476-0.476,3.1-0.677,4.63-1.003
	c3.446-0.876,7.075-4.267,7.568-7.805c-0.621,1.478-1.915,2.571-3.227,3.428c-2.265,1.057-4.559,2.259-6.474,3.938h-0.22
	l0.128-0.183C46.677,35.258,45.782,31.028,47.186,27.911z M35.5,28.13v0.034c-1.368,0.969,0.655,1.003,0.692,1.844
	c-0.2,0.4-0.931,0.802-0.475,1.276c0.147,0.164-0.071,0.291-0.127,0.438l1.879-1.588c-0.238,0.165-0.531,0.056-0.658-0.163
	C36.831,29.15,35.846,28.785,35.5,28.13z M7.749,28.221l0.528,1.348c0.511,3.027,0.749,6.364,3.501,8.28l-0.036,0.036
	c-0.896-0.385-1.569-1.133-2.371-1.625c-2.589-1.676-6.164-2.424-7.623-5.634c0.403,2.355,2.006,4.452,3.939,5.908
	c2.315,2.044,5.543,1.877,8.37,2.699c-1.039-0.802-1.623-1.713-2.097-2.845C10.921,33.524,10.01,30.537,7.749,28.221z
	 M20.001,28.823l0.219,0.272L20.001,28.823z M20.312,29.167c0,0.312,0.418,0.329,0.254,0.711c-0.619,0.385-1.368,0.109-1.969,0.566
	c-0.547,0.292-1.002-0.345-1.312-0.311c2.663,2.298,5.78,3.831,9.372,3.993l0.219,0.13c-0.145-0.876-0.09-1.897-0.036-2.809
	C24.396,31.593,22.188,30.571,20.312,29.167z M38.215,30.791c-0.4,0.548-0.947,1.057-1.53,1.405
	c-1.896,0.655-2.078,2.771-3.94,3.463c-0.728,0.29-1.146-0.655-1.803-0.803c-0.984,0.165-2.008,0.439-3.009,0.273v3.063l0.128-0.091
	c4.703-0.199,8.952-2.061,12.25-5.161C39.566,32.23,38.763,31.503,38.215,30.791z M16.682,30.975l-2.023,2.095
	c3.465,3.102,7.604,4.779,12.254,5.07l-0.128-0.22c0.037-0.911-0.073-1.878,0.09-2.753l-0.036,0.054
	C22.954,35.112,19.417,33.672,16.682,30.975z M27.786,31.63l0.183,0.311l-0.037,2.316c0.675-0.258,1.605-0.238,2.223-0.348
	c-0.364-0.364-0.91-0.329-1.056-0.876c-0.255-0.365,0.107-0.746,0.09-1.059C28.752,31.775,28.096,32.03,27.786,31.63z
	 M43.285,33.818c-2.098,1.367-3.902,3.702-5.815,5.196c-1.059,0.802-2.316,1.039-3.556,1.404c2.733,0.2,5.015,1.493,7.875,1.312
	c3.062-0.127,5.871-1.914,7.311-4.63c-2.112,2.518-5.507,2.37-8.621,2.661c-1.041,0.128-2.062,0.438-3.102,0.438
	c0.038-0.035,0.072-0.109,0.127-0.091C40.915,39.816,41.882,36.116,43.285,33.818z M11.65,34.037c1.404,1.641,1.459,3.812,3.41,5.16
	c0.749,0.657,1.749,0.785,2.589,1.13c-0.929,0.092-1.788-0.293-2.717-0.345c-3.135-0.386-6.727,0.017-9.026-2.537
	c1.04,1.823,2.882,3.409,4.813,4.029c3.647,1.386,6.949-0.655,10.429-0.967C17.103,40.327,14.914,35.915,11.65,34.037z
	 M37.906,42.57c-3.118-1.423-6.729-3.008-10.375-1.659c-1.84-0.602-4.249-0.602-6.089,0c-3.209,1.458-7.584,3.664-10.977,1.22
	c0.639,0.769,1.332,1.132,2.061,1.66c2.188,1.424,5.341,1.277,7.603,0.128c2.078-0.877,3.664-3.481,6.308-2.66
	c-2.243,1.129-4.302,2.479-6.162,4.411l1.13,0.965c1.641-2.168,3.846-3.974,6.218-5.031c2.296,1.112,4.393,3.026,6.126,4.939
	l1.131-0.965c-1.824-1.769-3.939-3.19-6.129-4.319c0.566-0.147,1.259-0.111,1.844-0.056c2.37,1.039,4.192,3.115,6.874,3.427
	c2.841,0.456,5.379-0.693,7.127-2.773l-1.349,0.714C41.662,43.28,39.528,43.098,37.906,42.57z"/>
</svg>
